<svg width="100" height="100" viewBox="0 0 100 100" fill="none" xmlns="http://www.w3.org/2000/svg">
<path d="M98 36.838C98 25.8818 89.3054 17 78.5801 17C73.9091 17 69.6232 18.6846 66.273 21.4916C61.9307 25.1298 59.1603 30.6534 59.1603 36.838C59.1603 43.0226 61.9307 48.5462 66.273 52.1844C69.6232 54.9913 73.9091 56.676 78.5801 56.676C89.3054 56.676 98 47.7942 98 36.838Z" fill="white"/>
<path d="M90.3053 36.838C90.3053 30.2229 85.0558 24.8603 78.5801 24.8603C72.1045 24.8603 66.855 30.2229 66.855 36.838C66.855 43.4531 72.1045 48.8156 78.5801 48.8156C85.0558 48.8156 90.3053 43.4531 90.3053 36.838Z" fill="black"/>
<path d="M82.6107 36.838C82.6107 34.5641 80.8062 32.7207 78.5801 32.7207C76.3541 32.7207 74.5496 34.5641 74.5496 36.838C74.5496 39.1119 76.3541 40.9553 78.5801 40.9553C80.8062 40.9553 82.6107 39.1119 82.6107 36.838Z" fill="white"/>
<path d="M2 36.838C2 25.8818 10.6946 17 21.4198 17C26.0909 17 30.3768 18.6846 33.727 21.4916C38.0692 25.1298 40.8397 30.6534 40.8397 36.838C40.8397 43.0226 38.0692 48.5462 33.727 52.1844C30.3768 54.9913 26.0909 56.676 21.4198 56.676C10.6946 56.676 2 47.7942 2 36.838Z" fill="white"/>
<path d="M9.69466 36.838C9.69466 30.2229 14.9442 24.8603 21.4198 24.8603C27.8955 24.8603 33.145 30.2229 33.145 36.838C33.145 43.4531 27.8955 48.8156 21.4198 48.8156C14.9442 48.8156 9.69466 43.4531 9.69466 36.838Z" fill="black"/>
<path d="M17.3893 36.838C17.3893 34.5641 19.1938 32.7207 21.4198 32.7207C23.6458 32.7207 25.4504 34.5641 25.4504 36.838C25.4504 39.1119 23.6458 40.9553 21.4198 40.9553C19.1938 40.9553 17.3893 39.1119 17.3893 36.838Z" fill="white"/>
<path d="M98 36.838C98 47.7942 89.3054 56.676 78.5801 56.676C73.9091 56.676 69.6232 54.9913 66.273 52.1844C61.9307 48.5462 59.1603 43.0226 59.1603 36.838C59.1603 30.6534 61.9307 25.1298 66.273 21.4916C60.7127 24.6843 57.2027 25.728 50 25.7961C42.7973 25.728 39.2873 24.6843 33.727 21.4916C38.0692 25.1298 40.8397 30.6534 40.8397 36.838C40.8397 43.0226 38.0692 48.5462 33.727 52.1844C30.3768 54.9913 26.0909 56.676 21.4198 56.676C10.6946 56.676 2 47.7942 2 36.838V84H98V36.838Z" fill="white"/>
</svg>
