<svg width="288" height="288" viewBox="0 0 288 288" fill="none" xmlns="http://www.w3.org/2000/svg">
<path d="M40.1962 123.77C43.8511 124.55 46.7869 126.38 49.0038 129.259C51.2207 132.078 52.3291 135.317 52.3291 138.976C52.3291 144.254 50.4717 148.453 46.757 151.572C43.1021 154.631 37.9793 156.16 31.3886 156.16H2V93H30.4C36.811 93 41.8139 94.4695 45.4089 97.4086C49.0637 100.348 50.8911 104.336 50.8911 109.375C50.8911 113.094 49.9025 116.183 47.9253 118.642C46.008 121.101 43.4316 122.811 40.1962 123.77ZM17.3684 118.552H27.4342C29.9506 118.552 31.8679 118.012 33.1861 116.933C34.5641 115.793 35.2532 114.143 35.2532 111.984C35.2532 109.825 34.5641 108.175 33.1861 107.036C31.8679 105.896 29.9506 105.326 27.4342 105.326H17.3684V118.552ZM28.6924 143.744C31.2688 143.744 33.246 143.174 34.624 142.035C36.062 140.835 36.781 139.126 36.781 136.906C36.781 134.687 36.0321 132.948 34.5342 131.688C33.0962 130.428 31.089 129.799 28.5127 129.799H17.3684V143.744H28.6924Z" fill="black"/>
<path d="M76.3415 93V130.788C76.3415 134.567 77.2702 137.476 79.1275 139.516C80.9849 141.555 83.7111 142.575 87.306 142.575C90.901 142.575 93.6571 141.555 95.5744 139.516C97.4917 137.476 98.4503 134.567 98.4503 130.788V93H113.819V130.698C113.819 136.337 112.62 141.105 110.224 145.004C107.827 148.903 104.592 151.842 100.517 153.821C96.5031 155.8 92.0094 156.79 87.0364 156.79C82.0634 156.79 77.5997 155.83 73.6453 153.911C69.7507 151.932 66.6651 148.993 64.3883 145.094C62.1115 141.135 60.9731 136.337 60.9731 130.698V93H76.3415Z" fill="black"/>
<path d="M139.979 144.284H160.111V156.16H124.611V93H139.979V144.284Z" fill="black"/>
<path d="M205.637 123.77C209.292 124.55 212.228 126.38 214.445 129.259C216.661 132.078 217.77 135.317 217.77 138.976C217.77 144.254 215.913 148.453 212.198 151.572C208.543 154.631 203.42 156.16 196.829 156.16H167.441V93H195.841C202.252 93 207.255 94.4695 210.85 97.4086C214.505 100.348 216.332 104.336 216.332 109.375C216.332 113.094 215.343 116.183 213.366 118.642C211.449 121.101 208.872 122.811 205.637 123.77ZM182.809 118.552H192.875C195.391 118.552 197.309 118.012 198.627 116.933C200.005 115.793 200.694 114.143 200.694 111.984C200.694 109.825 200.005 108.175 198.627 107.036C197.309 105.896 195.391 105.326 192.875 105.326H182.809V118.552ZM194.133 143.744C196.71 143.744 198.687 143.174 200.065 142.035C201.503 140.835 202.222 139.126 202.222 136.906C202.222 134.687 201.473 132.948 199.975 131.688C198.537 130.428 196.53 129.799 193.953 129.799H182.809V143.744H194.133Z" fill="black"/>
<path d="M265.958 145.004H242.411L238.637 156.16H222.549L245.377 93H263.172L286 156.16H269.733L265.958 145.004ZM262.004 133.128L254.185 110.005L246.456 133.128H262.004Z" fill="black"/>
<path d="M8.78509 183.152C8.78509 180.681 9.33632 178.473 10.4388 176.53C11.5652 174.563 13.087 173.039 15.0043 171.959C16.9456 170.856 19.1145 170.304 21.5112 170.304C24.3152 170.304 26.7718 171.024 28.8808 172.463C30.9898 173.903 32.4637 175.894 33.3026 178.437H27.5147C26.9395 177.238 26.1247 176.338 25.0702 175.738C24.0396 175.138 22.8413 174.839 21.4752 174.839C20.0133 174.839 18.7071 175.186 17.5567 175.882C16.4303 176.554 15.5436 177.514 14.8965 178.761C14.2734 180.009 13.9618 181.473 13.9618 183.152C13.9618 184.807 14.2734 186.271 14.8965 187.543C15.5436 188.79 16.4303 189.762 17.5567 190.458C18.7071 191.13 20.0133 191.465 21.4752 191.465C22.8413 191.465 24.0396 191.165 25.0702 190.566C26.1247 189.942 26.9395 189.03 27.5147 187.831H33.3026C32.4637 190.398 30.9898 192.401 28.8808 193.841C26.7957 195.256 24.3392 195.964 21.5112 195.964C19.1145 195.964 16.9456 195.424 15.0043 194.345C13.087 193.241 11.5652 191.717 10.4388 189.774C9.33632 187.831 8.78509 185.623 8.78509 183.152Z" fill="black"/>
<path d="M78.5836 191.753H86.8519V195.748H73.5507V170.628H78.5836V191.753Z" fill="black"/>
<path d="M137.648 196C135.299 196 133.142 195.448 131.177 194.345C129.212 193.241 127.654 191.717 126.504 189.774C125.353 187.807 124.778 185.587 124.778 183.116C124.778 180.669 125.353 178.473 126.504 176.53C127.654 174.563 129.212 173.027 131.177 171.923C133.142 170.82 135.299 170.268 137.648 170.268C140.021 170.268 142.177 170.82 144.119 171.923C146.084 173.027 147.63 174.563 148.756 176.53C149.907 178.473 150.482 180.669 150.482 183.116C150.482 185.587 149.907 187.807 148.756 189.774C147.63 191.717 146.084 193.241 144.119 194.345C142.153 195.448 139.997 196 137.648 196ZM137.648 191.501C139.158 191.501 140.488 191.165 141.638 190.494C142.789 189.798 143.687 188.814 144.334 187.543C144.982 186.271 145.305 184.795 145.305 183.116C145.305 181.437 144.982 179.973 144.334 178.725C143.687 177.454 142.789 176.482 141.638 175.81C140.488 175.138 139.158 174.803 137.648 174.803C136.138 174.803 134.796 175.138 133.622 175.81C132.471 176.482 131.572 177.454 130.925 178.725C130.278 179.973 129.955 181.437 129.955 183.116C129.955 184.795 130.278 186.271 130.925 187.543C131.572 188.814 132.471 189.798 133.622 190.494C134.796 191.165 136.138 191.501 137.648 191.501Z" fill="black"/>
<path d="M195.136 170.628V186.175C195.136 187.879 195.58 189.186 196.467 190.098C197.353 190.986 198.6 191.429 200.205 191.429C201.835 191.429 203.093 190.986 203.98 190.098C204.867 189.186 205.31 187.879 205.31 186.175V170.628H210.379V186.139C210.379 188.274 209.912 190.086 208.977 191.573C208.066 193.037 206.832 194.141 205.274 194.884C203.74 195.628 202.027 196 200.133 196C198.264 196 196.562 195.628 195.029 194.884C193.519 194.141 192.32 193.037 191.434 191.573C190.547 190.086 190.104 188.274 190.104 186.139V170.628H195.136Z" fill="black"/>
<path d="M259.963 170.628C262.599 170.628 264.912 171.144 266.901 172.175C268.914 173.207 270.46 174.683 271.538 176.602C272.641 178.497 273.192 180.705 273.192 183.224C273.192 185.743 272.641 187.951 271.538 189.846C270.46 191.717 268.914 193.169 266.901 194.201C264.912 195.232 262.599 195.748 259.963 195.748H251.191V170.628H259.963ZM259.783 191.465C262.419 191.465 264.456 190.746 265.894 189.306C267.332 187.867 268.051 185.839 268.051 183.224C268.051 180.609 267.332 178.569 265.894 177.106C264.456 175.618 262.419 174.875 259.783 174.875H256.224V191.465H259.783Z" fill="black"/>
</svg>
