<svg width="288" height="288" viewBox="0 0 288 288" fill="none" xmlns="http://www.w3.org/2000/svg">
<path d="M43.5237 122.173C47.1142 122.938 49.9984 124.731 52.1763 127.555C54.3541 130.319 55.443 133.495 55.443 137.083C55.443 142.259 53.6184 146.376 49.969 149.434C46.3785 152.434 41.3459 153.934 34.8712 153.934H6V92H33.9C40.1981 92 45.113 93.441 48.6446 96.323C52.2351 99.205 54.0304 103.116 54.0304 108.057C54.0304 111.704 53.0592 114.733 51.1168 117.144C49.2332 119.556 46.7022 121.232 43.5237 122.173ZM21.0978 117.056H30.9864C33.4585 117.056 35.3421 116.527 36.637 115.468C37.9908 114.35 38.6677 112.733 38.6677 110.615C38.6677 108.498 37.9908 106.881 36.637 105.763C35.3421 104.646 33.4585 104.087 30.9864 104.087H21.0978V117.056ZM32.2225 141.759C34.7535 141.759 36.6959 141.2 38.0497 140.083C39.4623 138.906 40.1687 137.23 40.1687 135.054C40.1687 132.878 39.4329 131.172 37.9614 129.937C36.5487 128.702 34.5769 128.084 32.0459 128.084H21.0978V141.759H32.2225Z" fill="black"/>
<path d="M79.0326 92V129.055C79.0326 132.76 79.945 135.613 81.7697 137.612C83.5943 139.612 86.2725 140.612 89.8042 140.612C93.3358 140.612 96.0434 139.612 97.9269 137.612C99.8105 135.613 100.752 132.76 100.752 129.055V92H115.85V128.966C115.85 134.495 114.673 139.171 112.318 142.994C109.964 146.817 106.785 149.699 102.783 151.64C98.8393 153.581 94.4247 154.552 89.5393 154.552C84.6538 154.552 80.2687 153.61 76.3839 151.728C72.558 149.787 69.5266 146.905 67.2899 143.082C65.0532 139.2 63.9348 134.495 63.9348 128.966V92H79.0326Z" fill="black"/>
<path d="M141.55 142.288H161.327V153.934H126.452V92H141.55V142.288Z" fill="black"/>
<path d="M206.052 122.173C209.642 122.938 212.527 124.731 214.704 127.555C216.882 130.319 217.971 133.495 217.971 137.083C217.971 142.259 216.146 146.376 212.497 149.434C208.907 152.434 203.874 153.934 197.399 153.934H168.528V92H196.428C202.726 92 207.641 93.441 211.173 96.323C214.763 99.205 216.558 103.116 216.558 108.057C216.558 111.704 215.587 114.733 213.645 117.144C211.761 119.556 209.23 121.232 206.052 122.173ZM183.626 117.056H193.515C195.987 117.056 197.87 116.527 199.165 115.468C200.519 114.35 201.196 112.733 201.196 110.615C201.196 108.498 200.519 106.881 199.165 105.763C197.87 104.646 195.987 104.087 193.515 104.087H183.626V117.056ZM194.751 141.759C197.282 141.759 199.224 141.2 200.578 140.083C201.99 138.906 202.697 137.23 202.697 135.054C202.697 132.878 201.961 131.172 200.49 129.937C199.077 128.702 197.105 128.084 194.574 128.084H183.626V141.759H194.751Z" fill="black"/>
<path d="M265.311 142.994H242.179L238.471 153.934H222.666L245.092 92H262.574L285 153.934H269.019L265.311 142.994ZM261.426 131.348L253.745 108.675L246.152 131.348H261.426Z" fill="black"/>
<path d="M7.71623 180.437C7.71623 178.037 8.25775 175.884 9.34078 173.979C10.4238 172.049 11.8953 170.544 13.7553 169.462C15.6389 168.379 17.7226 167.838 20.0064 167.838C22.6904 167.838 25.0331 168.485 27.0343 169.779C29.0356 171.073 30.4953 172.908 31.4136 175.284H27.5641C26.8813 173.802 25.8924 172.661 24.5975 171.861C23.3261 171.061 21.7957 170.661 20.0064 170.661C18.2876 170.661 16.7455 171.061 15.3799 171.861C14.0143 172.661 12.9431 173.802 12.1661 175.284C11.3891 176.743 11.0007 178.461 11.0007 180.437C11.0007 182.389 11.3891 184.107 12.1661 185.589C12.9431 187.048 14.0143 188.177 15.3799 188.977C16.7455 189.777 18.2876 190.177 20.0064 190.177C21.7957 190.177 23.3261 189.789 24.5975 189.012C25.8924 188.212 26.8813 187.071 27.5641 185.589H31.4136C30.4953 187.942 29.0356 189.765 27.0343 191.059C25.0331 192.329 22.6904 192.965 20.0064 192.965C17.7226 192.965 15.6389 192.435 13.7553 191.377C11.8953 190.294 10.4238 188.8 9.34078 186.895C8.25775 184.989 7.71623 182.836 7.71623 180.437Z" fill="black"/>
<path d="M78.2595 190.142H86.8767V192.753H75.0457V168.156H78.2595V190.142Z" fill="black"/>
<path d="M140.298 193C138.014 193 135.93 192.471 134.047 191.412C132.163 190.33 130.668 188.836 129.562 186.93C128.479 185.001 127.937 182.836 127.937 180.437C127.937 178.037 128.479 175.884 129.562 173.979C130.668 172.049 132.163 170.556 134.047 169.497C135.93 168.415 138.014 167.874 140.298 167.874C142.605 167.874 144.701 168.415 146.584 169.497C148.468 170.556 149.951 172.038 151.034 173.943C152.117 175.849 152.659 178.014 152.659 180.437C152.659 182.86 152.117 185.024 151.034 186.93C149.951 188.836 148.468 190.33 146.584 191.412C144.701 192.471 142.605 193 140.298 193ZM140.298 190.212C142.017 190.212 143.559 189.812 144.924 189.012C146.313 188.212 147.396 187.071 148.173 185.589C148.974 184.107 149.374 182.389 149.374 180.437C149.374 178.461 148.974 176.743 148.173 175.284C147.396 173.802 146.325 172.661 144.96 171.861C143.594 171.061 142.04 170.661 140.298 170.661C138.556 170.661 137.002 171.061 135.636 171.861C134.27 172.661 133.187 173.802 132.387 175.284C131.61 176.743 131.221 178.461 131.221 180.437C131.221 182.389 131.61 184.107 132.387 185.589C133.187 187.071 134.27 188.212 135.636 189.012C137.025 189.812 138.579 190.212 140.298 190.212Z" fill="black"/>
<path d="M198.892 168.156V183.719C198.892 185.907 199.422 187.53 200.482 188.589C201.565 189.647 203.06 190.177 204.967 190.177C206.85 190.177 208.322 189.647 209.381 188.589C210.465 187.53 211.006 185.907 211.006 183.719V168.156H214.22V183.683C214.22 185.73 213.808 187.459 212.984 188.871C212.16 190.259 211.041 191.294 209.629 191.977C208.24 192.659 206.674 193 204.932 193C203.189 193 201.612 192.659 200.199 191.977C198.81 191.294 197.703 190.259 196.879 188.871C196.079 187.459 195.679 185.73 195.679 183.683V168.156H198.892Z" fill="black"/>
<path d="M266.093 168.156C268.777 168.156 271.096 168.662 273.05 169.673C275.028 170.661 276.535 172.085 277.571 173.943C278.63 175.802 279.16 177.99 279.16 180.507C279.16 183.025 278.63 185.213 277.571 187.071C276.535 188.906 275.028 190.318 273.05 191.306C271.096 192.271 268.777 192.753 266.093 192.753H258.429V168.156H266.093ZM266.093 190.106C269.271 190.106 271.696 189.271 273.368 187.601C275.04 185.907 275.875 183.542 275.875 180.507C275.875 177.449 275.028 175.061 273.333 173.343C271.661 171.626 269.248 170.767 266.093 170.767H261.643V190.106H266.093Z" fill="black"/>
</svg>
