<svg width="622" height="364" viewBox="0 0 622 364" fill="none" xmlns="http://www.w3.org/2000/svg">
<rect width="622" height="364" fill="url(#paint0_linear_176_75)"/>
<path d="M363.674 133.533C353.82 129.043 343.42 125.841 332.735 124.008C332.638 123.99 332.538 124.003 332.449 124.045C332.359 124.087 332.286 124.155 332.238 124.241C330.902 126.6 329.422 129.678 328.386 132.096C316.702 130.36 305.079 130.36 293.636 132.096C292.6 129.624 291.066 126.6 289.724 124.241C289.674 124.157 289.6 124.09 289.511 124.049C289.423 124.007 289.323 123.993 289.227 124.009C278.541 125.838 268.14 129.039 258.287 133.533C258.203 133.568 258.132 133.629 258.084 133.707C238.378 162.929 232.98 191.432 235.628 219.582C235.636 219.651 235.657 219.718 235.691 219.778C235.725 219.839 235.771 219.892 235.826 219.935C248.827 229.412 261.421 235.166 273.781 238.979C273.877 239.007 273.98 239.006 274.075 238.975C274.17 238.944 274.254 238.885 274.314 238.806C277.238 234.843 279.844 230.663 282.079 226.269C282.11 226.209 282.127 226.143 282.13 226.076C282.133 226.008 282.122 225.941 282.097 225.878C282.072 225.815 282.034 225.759 281.986 225.711C281.937 225.664 281.879 225.628 281.815 225.605C277.681 224.048 273.745 222.15 269.958 219.995C269.889 219.955 269.831 219.898 269.789 219.831C269.747 219.763 269.723 219.686 269.718 219.607C269.713 219.527 269.728 219.448 269.762 219.376C269.795 219.303 269.846 219.24 269.91 219.192C270.707 218.6 271.504 217.984 272.265 217.361C272.332 217.305 272.414 217.27 272.501 217.258C272.588 217.246 272.676 217.259 272.756 217.295C297.632 228.568 324.563 228.568 349.145 217.295C349.225 217.257 349.314 217.242 349.402 217.253C349.49 217.263 349.573 217.299 349.642 217.354C350.403 217.977 351.2 218.6 352.003 219.192C352.067 219.24 352.118 219.303 352.152 219.374C352.186 219.446 352.202 219.525 352.197 219.605C352.193 219.684 352.17 219.761 352.128 219.829C352.087 219.897 352.03 219.954 351.961 219.995C348.173 222.191 344.205 224.065 340.099 225.598C340.035 225.622 339.977 225.66 339.929 225.708C339.881 225.756 339.843 225.813 339.819 225.876C339.795 225.94 339.784 226.007 339.788 226.075C339.792 226.143 339.81 226.209 339.841 226.269C342.124 230.657 344.73 234.836 347.6 238.799C347.658 238.881 347.741 238.942 347.837 238.975C347.933 239.007 348.036 239.008 348.133 238.979C360.552 235.165 373.146 229.412 386.147 219.935C386.203 219.894 386.25 219.842 386.284 219.783C386.318 219.723 386.339 219.656 386.346 219.588C389.515 187.043 381.037 158.773 363.872 133.712C363.83 133.631 363.76 133.568 363.674 133.533ZM285.793 202.442C278.304 202.442 272.133 195.616 272.133 187.235C272.133 178.853 278.184 172.028 285.794 172.028C293.462 172.028 299.573 178.913 299.454 187.235C299.454 195.616 293.402 202.442 285.793 202.442ZM336.3 202.442C328.811 202.442 322.64 195.616 322.64 187.235C322.64 178.853 328.691 172.028 336.3 172.028C343.969 172.028 350.08 178.913 349.96 187.235C349.96 195.616 343.969 202.442 336.3 202.442Z" fill="#367CEA"/>
<defs>
<linearGradient id="paint0_linear_176_75" x1="311" y1="0" x2="311" y2="364" gradientUnits="userSpaceOnUse">
<stop stop-color="white"/>
<stop offset="1" stop-color="#C9DEFF"/>
</linearGradient>
</defs>
</svg>
