<svg width="256" height="256" viewBox="0 0 256 256" fill="none" xmlns="http://www.w3.org/2000/svg">
<path d="M256 92.8156C256 64.1987 232.815 41 204.214 41C191.758 41 180.329 45.4002 171.395 52.7318C159.815 62.2345 152.427 76.6618 152.427 92.8156C152.427 108.969 159.815 123.397 171.395 132.899C180.329 140.231 191.758 144.631 204.214 144.631C232.815 144.631 256 121.433 256 92.8156Z" fill="#00A6FF"/>
<path d="M235.481 92.8156C235.481 75.5375 221.482 61.5307 204.214 61.5307C186.945 61.5307 172.947 75.5375 172.947 92.8156C172.947 110.094 186.945 124.101 204.214 124.101C221.482 124.101 235.481 110.094 235.481 92.8156Z" fill="white"/>
<path d="M214.962 92.8156C214.962 86.8763 210.15 82.0614 204.214 82.0614C198.278 82.0614 193.466 86.8763 193.466 92.8156C193.466 98.755 198.278 103.57 204.214 103.57C210.15 103.57 214.962 98.755 214.962 92.8156Z" fill="#00A6FF"/>
<path d="M0 92.8156C0 64.1987 23.1855 41 51.7863 41C64.2424 41 75.6714 45.4002 84.6053 52.7318C96.1847 62.2345 103.573 76.6618 103.573 92.8156C103.573 108.969 96.1847 123.397 84.6053 132.899C75.6714 140.231 64.2424 144.631 51.7863 144.631C23.1855 144.631 0 121.433 0 92.8156Z" fill="#00A6FF"/>
<path d="M20.5191 92.8156C20.5191 75.5375 34.5179 61.5307 51.7863 61.5307C69.0546 61.5307 83.0534 75.5375 83.0534 92.8156C83.0534 110.094 69.0546 124.101 51.7863 124.101C34.5179 124.101 20.5191 110.094 20.5191 92.8156Z" fill="white"/>
<path d="M41.0382 92.8156C41.0382 86.8763 45.8503 82.0614 51.7863 82.0614C57.7223 82.0614 62.5344 86.8763 62.5344 92.8156C62.5344 98.755 57.7223 103.57 51.7863 103.57C45.8503 103.57 41.0382 98.755 41.0382 92.8156Z" fill="#00A6FF"/>
<path d="M256 92.8156C256 121.433 232.815 144.631 204.214 144.631C191.758 144.631 180.329 140.231 171.395 132.899C159.815 123.397 152.427 108.969 152.427 92.8156C152.427 76.6618 159.815 62.2345 171.395 52.7318C156.567 61.0708 147.207 63.7971 128 63.9749C108.793 63.7971 99.4327 61.0708 84.6053 52.7318C96.1847 62.2345 103.573 76.6618 103.573 92.8156C103.573 108.969 96.1847 123.397 84.6053 132.899C75.6714 140.231 64.2424 144.631 51.7863 144.631C23.1855 144.631 0 121.433 0 92.8156V216H256V92.8156Z" fill="#00A6FF"/>
</svg>
