<svg width="1029" height="998" viewBox="0 0 1029 998" fill="none" xmlns="http://www.w3.org/2000/svg">
<g clip-path="url(#clip0_140_114)">
<path d="M516.19 55.0002C318.888 54.4052 158.149 214.758 158.149 411.762H296.129C296.129 265.303 441.369 152.015 595.533 207.826C623.85 218.159 649.564 234.558 670.876 255.875C692.187 277.192 708.58 302.91 718.906 331.229C775.104 485.245 661.667 630.365 515.416 630.633V493.485H377.882V631.02H515.03V769C748.865 769 930.548 543.257 854.09 298.058C820.919 191.255 735.537 106.289 628.734 72.7014C592.31 61.1879 554.36 55.2207 516.16 55.0002H516.19ZM377.882 631.02H271.883V737.049H377.852L377.882 631.02ZM271.853 631.02V542.424H183.287V631.02H271.853Z" fill="url(#paint0_linear_140_114)"/>
</g>
<path d="M231.102 895H205.321V822.273H231.315C238.631 822.273 244.928 823.729 250.207 826.641C255.487 829.529 259.547 833.684 262.388 839.105C265.252 844.527 266.685 851.013 266.685 858.565C266.685 866.141 265.252 872.652 262.388 878.097C259.547 883.542 255.463 887.72 250.136 890.632C244.833 893.544 238.489 895 231.102 895ZM220.697 881.825H230.463C235.009 881.825 238.832 881.02 241.933 879.411C245.058 877.777 247.402 875.256 248.964 871.847C250.551 868.414 251.344 863.987 251.344 858.565C251.344 853.191 250.551 848.8 248.964 845.391C247.402 841.982 245.07 839.472 241.969 837.862C238.867 836.252 235.044 835.447 230.499 835.447H220.697V881.825ZM277.791 895V840.455H292.919V895H277.791ZM285.39 833.423C283.141 833.423 281.212 832.678 279.602 831.186C278.016 829.671 277.223 827.86 277.223 825.753C277.223 823.67 278.016 821.882 279.602 820.391C281.212 818.875 283.141 818.118 285.39 818.118C287.639 818.118 289.557 818.875 291.143 820.391C292.753 821.882 293.558 823.67 293.558 825.753C293.558 827.86 292.753 829.671 291.143 831.186C289.557 832.678 287.639 833.423 285.39 833.423ZM329.611 916.591C324.71 916.591 320.508 915.916 317.004 914.567C313.524 913.241 310.754 911.43 308.695 909.134C306.635 906.837 305.297 904.257 304.682 901.392L318.673 899.51C319.099 900.599 319.774 901.617 320.697 902.564C321.621 903.511 322.84 904.268 324.355 904.837C325.894 905.429 327.764 905.724 329.966 905.724C333.257 905.724 335.967 904.92 338.098 903.31C340.252 901.723 341.33 899.06 341.33 895.32V885.341H340.69C340.027 886.856 339.033 888.288 337.707 889.638C336.382 890.987 334.677 892.088 332.594 892.94C330.51 893.793 328.025 894.219 325.136 894.219C321.041 894.219 317.312 893.272 313.95 891.378C310.612 889.46 307.949 886.536 305.96 882.607C303.995 878.653 303.013 873.658 303.013 867.621C303.013 861.442 304.019 856.281 306.031 852.138C308.044 847.995 310.719 844.893 314.057 842.834C317.419 840.774 321.1 839.744 325.101 839.744C328.155 839.744 330.712 840.265 332.771 841.307C334.831 842.325 336.488 843.603 337.743 845.142C339.021 846.657 340.004 848.149 340.69 849.616H341.259V840.455H356.28V895.533C356.28 900.173 355.143 904.055 352.871 907.18C350.598 910.305 347.449 912.649 343.425 914.212C339.424 915.798 334.819 916.591 329.611 916.591ZM329.93 882.855C332.369 882.855 334.429 882.251 336.109 881.044C337.814 879.813 339.116 878.061 340.016 875.788C340.939 873.492 341.401 870.746 341.401 867.55C341.401 864.354 340.951 861.584 340.051 859.24C339.152 856.873 337.849 855.038 336.145 853.736C334.44 852.434 332.369 851.783 329.93 851.783C327.445 851.783 325.349 852.457 323.645 853.807C321.94 855.133 320.65 856.979 319.774 859.347C318.898 861.714 318.46 864.448 318.46 867.55C318.46 870.698 318.898 873.421 319.774 875.717C320.674 877.99 321.964 879.754 323.645 881.009C325.349 882.24 327.445 882.855 329.93 882.855ZM368.318 895V840.455H383.446V895H368.318ZM375.918 833.423C373.669 833.423 371.739 832.678 370.129 831.186C368.543 829.671 367.75 827.86 367.75 825.753C367.75 823.67 368.543 821.882 370.129 820.391C371.739 818.875 373.669 818.118 375.918 818.118C378.167 818.118 380.084 818.875 381.67 820.391C383.28 821.882 384.085 823.67 384.085 825.753C384.085 827.86 383.28 829.671 381.67 831.186C380.084 832.678 378.167 833.423 375.918 833.423ZM424.577 840.455V851.818H391.729V840.455H424.577ZM399.186 827.386H414.314V878.239C414.314 879.635 414.527 880.724 414.953 881.506C415.38 882.263 415.971 882.796 416.729 883.104C417.51 883.411 418.41 883.565 419.428 883.565C420.138 883.565 420.848 883.506 421.559 883.388C422.269 883.246 422.813 883.139 423.192 883.068L425.571 894.325C424.814 894.562 423.748 894.834 422.375 895.142C421.002 895.473 419.333 895.675 417.368 895.746C413.722 895.888 410.526 895.402 407.78 894.29C405.058 893.177 402.939 891.449 401.424 889.105C399.908 886.761 399.163 883.802 399.186 880.227V827.386ZM449.985 896.03C446.505 896.03 443.404 895.426 440.681 894.219C437.959 892.988 435.805 891.177 434.218 888.786C432.656 886.371 431.875 883.364 431.875 879.766C431.875 876.735 432.431 874.19 433.544 872.131C434.656 870.071 436.172 868.414 438.089 867.159C440.007 865.904 442.185 864.957 444.623 864.318C447.085 863.679 449.666 863.229 452.365 862.969C455.537 862.637 458.094 862.33 460.035 862.045C461.976 861.738 463.385 861.288 464.261 860.696C465.137 860.104 465.575 859.228 465.575 858.068V857.855C465.575 855.606 464.865 853.866 463.444 852.635C462.047 851.404 460.059 850.788 457.478 850.788C454.756 850.788 452.59 851.392 450.98 852.599C449.37 853.783 448.305 855.275 447.784 857.074L433.792 855.938C434.502 852.623 435.899 849.759 437.983 847.344C440.066 844.905 442.753 843.035 446.044 841.733C449.358 840.407 453.193 839.744 457.549 839.744C460.58 839.744 463.48 840.099 466.25 840.81C469.043 841.52 471.517 842.621 473.672 844.112C475.85 845.604 477.566 847.521 478.821 849.865C480.075 852.185 480.703 854.967 480.703 858.21V895H466.356V887.436H465.93C465.054 889.141 463.882 890.644 462.414 891.946C460.947 893.224 459.183 894.231 457.123 894.964C455.064 895.675 452.684 896.03 449.985 896.03ZM454.318 885.589C456.543 885.589 458.508 885.152 460.213 884.276C461.917 883.376 463.255 882.169 464.225 880.653C465.196 879.138 465.681 877.422 465.681 875.504V869.716C465.208 870.024 464.557 870.308 463.728 870.568C462.923 870.805 462.012 871.03 460.994 871.243C459.976 871.432 458.958 871.61 457.94 871.776C456.922 871.918 455.999 872.048 455.17 872.166C453.395 872.427 451.844 872.841 450.518 873.409C449.192 873.977 448.163 874.747 447.429 875.717C446.695 876.664 446.328 877.848 446.328 879.268C446.328 881.328 447.074 882.902 448.565 883.991C450.08 885.057 451.998 885.589 454.318 885.589ZM507.567 822.273V895H492.439V822.273H507.567ZM586.802 858.636C586.802 866.567 585.299 873.314 582.292 878.878C579.309 884.441 575.237 888.691 570.076 891.626C564.939 894.538 559.162 895.994 552.746 895.994C546.283 895.994 540.483 894.527 535.346 891.591C530.209 888.655 526.148 884.406 523.165 878.842C520.183 873.279 518.691 866.544 518.691 858.636C518.691 850.705 520.183 843.958 523.165 838.395C526.148 832.831 530.209 828.594 535.346 825.682C540.483 822.746 546.283 821.278 552.746 821.278C559.162 821.278 564.939 822.746 570.076 825.682C575.237 828.594 579.309 832.831 582.292 838.395C585.299 843.958 586.802 850.705 586.802 858.636ZM571.212 858.636C571.212 853.499 570.443 849.167 568.904 845.639C567.389 842.112 565.246 839.437 562.477 837.614C559.707 835.791 556.463 834.879 552.746 834.879C549.03 834.879 545.786 835.791 543.016 837.614C540.246 839.437 538.092 842.112 536.553 845.639C535.038 849.167 534.281 853.499 534.281 858.636C534.281 863.774 535.038 868.106 536.553 871.634C538.092 875.161 540.246 877.836 543.016 879.659C545.786 881.482 549.03 882.393 552.746 882.393C556.463 882.393 559.707 881.482 562.477 879.659C565.246 877.836 567.389 875.161 568.904 871.634C570.443 868.106 571.212 863.774 571.212 858.636ZM622.553 896.065C616.966 896.065 612.16 894.882 608.135 892.514C604.134 890.123 601.057 886.809 598.902 882.571C596.772 878.333 595.706 873.456 595.706 867.94C595.706 862.353 596.783 857.453 598.938 853.239C601.116 849.001 604.205 845.698 608.206 843.331C612.207 840.94 616.966 839.744 622.482 839.744C627.24 839.744 631.407 840.608 634.982 842.337C638.557 844.065 641.386 846.491 643.469 849.616C645.552 852.741 646.701 856.411 646.914 860.625H632.638C632.236 857.902 631.17 855.713 629.442 854.055C627.738 852.375 625.5 851.534 622.73 851.534C620.387 851.534 618.339 852.173 616.587 853.452C614.859 854.706 613.509 856.541 612.539 858.956C611.568 861.371 611.083 864.295 611.083 867.727C611.083 871.207 611.556 874.167 612.503 876.605C613.474 879.044 614.835 880.902 616.587 882.18C618.339 883.459 620.387 884.098 622.73 884.098C624.459 884.098 626.009 883.743 627.382 883.033C628.779 882.322 629.927 881.293 630.827 879.943C631.75 878.57 632.354 876.925 632.638 875.007H646.914C646.677 879.174 645.541 882.843 643.505 886.016C641.492 889.164 638.711 891.626 635.159 893.402C631.608 895.178 627.406 896.065 622.553 896.065ZM681.457 896.065C675.847 896.065 671.017 894.929 666.969 892.656C662.944 890.36 659.843 887.116 657.665 882.926C655.487 878.712 654.398 873.729 654.398 867.976C654.398 862.365 655.487 857.441 657.665 853.203C659.843 848.965 662.909 845.663 666.862 843.295C670.839 840.928 675.503 839.744 680.854 839.744C684.452 839.744 687.802 840.324 690.903 841.484C694.028 842.621 696.751 844.337 699.071 846.634C701.415 848.93 703.238 851.818 704.54 855.298C705.842 858.755 706.493 862.803 706.493 867.443V871.598H660.435V862.223H692.253C692.253 860.045 691.779 858.116 690.832 856.435C689.885 854.754 688.571 853.44 686.891 852.493C685.233 851.522 683.304 851.037 681.102 851.037C678.806 851.037 676.77 851.57 674.994 852.635C673.242 853.677 671.869 855.085 670.875 856.861C669.881 858.613 669.372 860.566 669.348 862.72V871.634C669.348 874.332 669.845 876.664 670.839 878.629C671.857 880.594 673.29 882.109 675.136 883.175C676.983 884.24 679.173 884.773 681.706 884.773C683.387 884.773 684.926 884.536 686.322 884.062C687.719 883.589 688.915 882.879 689.909 881.932C690.903 880.985 691.661 879.825 692.182 878.452L706.173 879.375C705.463 882.737 704.007 885.672 701.805 888.182C699.627 890.668 696.81 892.609 693.354 894.006C689.921 895.379 685.955 896.065 681.457 896.065ZM731.919 896.03C728.439 896.03 725.338 895.426 722.615 894.219C719.893 892.988 717.738 891.177 716.152 888.786C714.589 886.371 713.808 883.364 713.808 879.766C713.808 876.735 714.365 874.19 715.477 872.131C716.59 870.071 718.105 868.414 720.023 867.159C721.94 865.904 724.118 864.957 726.557 864.318C729.019 863.679 731.599 863.229 734.298 862.969C737.471 862.637 740.027 862.33 741.969 862.045C743.91 861.738 745.319 861.288 746.195 860.696C747.071 860.104 747.509 859.228 747.509 858.068V857.855C747.509 855.606 746.798 853.866 745.378 852.635C743.981 851.404 741.992 850.788 739.412 850.788C736.689 850.788 734.523 851.392 732.913 852.599C731.304 853.783 730.238 855.275 729.717 857.074L715.726 855.938C716.436 852.623 717.833 849.759 719.916 847.344C722 844.905 724.687 843.035 727.977 841.733C731.292 840.407 735.127 839.744 739.483 839.744C742.513 839.744 745.413 840.099 748.183 840.81C750.977 841.52 753.451 842.621 755.605 844.112C757.783 845.604 759.5 847.521 760.754 849.865C762.009 852.185 762.636 854.967 762.636 858.21V895H748.29V887.436H747.864C746.988 889.141 745.816 890.644 744.348 891.946C742.88 893.224 741.116 894.231 739.057 894.964C736.997 895.675 734.618 896.03 731.919 896.03ZM736.251 885.589C738.477 885.589 740.442 885.152 742.146 884.276C743.851 883.376 745.188 882.169 746.159 880.653C747.13 879.138 747.615 877.422 747.615 875.504V869.716C747.142 870.024 746.491 870.308 745.662 870.568C744.857 870.805 743.946 871.03 742.928 871.243C741.91 871.432 740.892 871.61 739.874 871.776C738.856 871.918 737.932 872.048 737.104 872.166C735.328 872.427 733.777 872.841 732.452 873.409C731.126 873.977 730.096 874.747 729.362 875.717C728.628 876.664 728.261 877.848 728.261 879.268C728.261 881.328 729.007 882.902 730.499 883.991C732.014 885.057 733.931 885.589 736.251 885.589ZM789.501 863.466V895H774.373V840.455H788.79V850.078H789.43C790.637 846.906 792.661 844.396 795.502 842.55C798.343 840.679 801.788 839.744 805.836 839.744C809.624 839.744 812.926 840.573 815.744 842.23C818.561 843.887 820.751 846.255 822.313 849.332C823.876 852.386 824.657 856.032 824.657 860.27V895H809.529V862.969C809.553 859.631 808.701 857.027 806.972 855.156C805.244 853.262 802.865 852.315 799.835 852.315C797.799 852.315 795.999 852.753 794.437 853.629C792.898 854.505 791.691 855.784 790.815 857.464C789.962 859.122 789.524 861.122 789.501 863.466Z" fill="url(#paint1_linear_140_114)"/>
<defs>
<linearGradient id="paint0_linear_140_114" x1="514.98" y1="54.9985" x2="514.98" y2="769" gradientUnits="userSpaceOnUse">
<stop stop-color="#3C84F6"/>
<stop offset="0.5" stop-color="#6DA3F8"/>
<stop offset="1" stop-color="#3C84F6"/>
</linearGradient>
<linearGradient id="paint1_linear_140_114" x1="515" y1="798" x2="515" y2="919" gradientUnits="userSpaceOnUse">
<stop stop-color="#3C84F6"/>
<stop offset="0.5" stop-color="#6DA3F8"/>
<stop offset="1" stop-color="#3C84F6"/>
</linearGradient>
<clipPath id="clip0_140_114">
<rect width="714" height="714" fill="white" transform="translate(158 55)"/>
</clipPath>
</defs>
</svg>
