<svg width="90" height="100" viewBox="0 0 90 100" fill="none" xmlns="http://www.w3.org/2000/svg">
<path d="M66.2261 0H23.7739C9.27646 0 -1.84405 13.2025 0.255167 27.9219L7.55986 79.1414C9.26819 91.1201 19.2806 100 31.0786 100H58.9214C70.7194 100 80.7318 91.1201 82.4401 79.1414L89.7448 27.9219C91.8441 13.2025 80.7235 0 66.2261 0Z" fill="white"/>
<path d="M22.2222 36.7816C22.2222 30.4335 27.1968 25.2874 33.3333 25.2874H56.6667C62.8032 25.2874 67.7778 30.4335 67.7778 36.7816V64.3678C67.7778 70.7159 62.8032 75.8621 56.6667 75.8621H33.3333C27.1968 75.8621 22.2222 70.7159 22.2222 64.3678V36.7816Z" fill="black"/>
<path d="M33.2971 56.3257L32.3378 49.1028C31.31 41.3636 37.2693 34.4828 45 34.4828C52.7307 34.4828 58.69 41.3636 57.6622 49.1028L56.7029 56.3257C55.9166 62.2467 20.7692 66.8317 45 66.6667C69.2308 66.5017 34.0834 62.2467 33.2971 56.3257Z" fill="white"/>
</svg>
