<svg width="622" height="364" viewBox="0 0 622 364" fill="none" xmlns="http://www.w3.org/2000/svg">
<rect width="622" height="364" fill="url(#paint0_linear_176_32)"/>
<path d="M337.574 193.513C336.132 192.793 329.036 189.323 327.716 188.839C326.39 188.361 325.428 188.124 324.462 189.564C323.505 191 320.737 194.233 319.897 195.19C319.057 196.152 318.212 196.268 316.769 195.553C315.327 194.828 310.674 193.315 305.162 188.424C300.874 184.615 297.975 179.912 297.135 178.472C296.295 177.036 297.047 176.258 297.766 175.543C298.417 174.9 299.213 173.866 299.932 173.029C300.656 172.188 300.894 171.589 301.379 170.627C301.86 169.67 301.622 168.834 301.258 168.114C300.894 167.394 298.009 160.323 296.809 157.447C295.634 154.648 294.444 155.03 293.561 154.982C292.72 154.943 291.759 154.933 290.792 154.933C289.831 154.933 288.267 155.291 286.946 156.731C285.625 158.167 281.896 161.642 281.896 168.713C281.896 175.78 287.068 182.609 287.786 183.571C288.51 184.528 297.965 199.038 312.442 205.258C315.885 206.737 318.571 207.622 320.669 208.279C324.127 209.376 327.274 209.221 329.755 208.849C332.528 208.438 338.293 205.374 339.497 202.02C340.702 198.665 340.702 195.79 340.337 195.19C339.978 194.591 339.021 194.233 337.574 193.513ZM311.243 229.294H311.223C302.626 229.295 294.187 226.994 286.791 222.634L285.038 221.6L266.87 226.346L271.717 208.714L270.575 206.906C265.77 199.29 263.227 190.476 263.242 181.483C263.247 155.141 284.785 133.71 311.262 133.71C324.083 133.71 336.137 138.689 345.199 147.717C349.67 152.148 353.214 157.416 355.625 163.219C358.037 169.021 359.268 175.242 359.248 181.522C359.234 207.863 337.7 229.294 311.243 229.294ZM352.099 140.859C346.749 135.498 340.382 131.248 333.369 128.354C326.355 125.46 318.835 123.98 311.243 124C279.409 124 253.5 149.786 253.486 181.478C253.486 191.609 256.142 201.498 261.198 210.212L253 240L283.62 232.006C292.087 236.597 301.576 239.003 311.218 239.004H311.243C343.071 239.004 368.985 213.219 369 181.522C369.023 173.968 367.542 166.486 364.641 159.506C361.74 152.526 357.477 146.188 352.099 140.859Z" fill="#367CEA"/>
<defs>
<linearGradient id="paint0_linear_176_32" x1="311" y1="0" x2="311" y2="364" gradientUnits="userSpaceOnUse">
<stop stop-color="white"/>
<stop offset="1" stop-color="#C9DEFF"/>
</linearGradient>
</defs>
</svg>
